<svg xmlns="http://www.w3.org/2000/svg" width="680" height="172" viewBox="0 0 680 172" role="img" aria-labelledby="title description">
<title id="title">Building in public</title>
<desc id="description">251 authored commits on 38 active days in the last 12 weeks across 3 owned public repositories. Updated 2026-10-08. Weekly counts: 6, 1, 0, 5, 17, 39, 40, 102, 17, 4, 12, 8.</desc>
<style>text{font-family:-apple-system,BlinkMacSystemFont,Segoe UI,Arial,sans-serif;fill:#26241f}.muted{fill:#6b655b}.number{font-size:36px;font-weight:650}.small{font-size:11px}@media(prefers-color-scheme:dark){text{fill:#eeeDE8}.muted{fill:#b9b7b0}}</style>
<rect x=".5" y=".5" width="679" height="171" rx="12" fill="none" stroke="#2f7fb3" stroke-opacity=".4"/>
<text x="22" y="28" font-size="15" font-weight="650">Building in public</text>
<text x="658" y="28" text-anchor="end" class="muted small">LAST 12 WEEKS · 2026-10-08</text>
<text x="22" y="85" class="number">251</text><text x="22" y="109" class="muted" font-size="13">authored commits</text>
<text x="200" y="85" class="number">38</text><text x="200" y="109" class="muted" font-size="13">active days</text>
<rect x="360" y="109" width="15" height="3" rx="2" fill="#2f7fb3"><title>Week starting 2026-07-17: 6 commits</title></rect><rect x="384" y="109" width="15" height="3" rx="2" fill="#2f7fb3"><title>Week starting 2026-07-24: 1 commits</title></rect><rect x="408" y="111" width="15" height="1" rx="2" fill="#2f7fb3"><title>Week starting 2026-07-31: 0 commits</title></rect><rect x="432" y="109" width="15" height="3" rx="2" fill="#2f7fb3"><title>Week starting 2026-08-07: 5 commits</title></rect><rect x="456" y="104" width="15" height="8" rx="2" fill="#2f7fb3"><title>Week starting 2026-08-14: 17 commits</title></rect><rect x="480" y="93.64705882352942" width="15" height="18.352941176470587" rx="2" fill="#2f7fb3"><title>Week starting 2026-08-21: 39 commits</title></rect><rect x="504" y="93.17647058823529" width="15" height="18.823529411764707" rx="2" fill="#2f7fb3"><title>Week starting 2026-08-28: 40 commits</title></rect><rect x="528" y="64" width="15" height="48" rx="2" fill="#2f7fb3"><title>Week starting 2026-09-04: 102 commits</title></rect><rect x="552" y="104" width="15" height="8" rx="2" fill="#2f7fb3"><title>Week starting 2026-09-11: 17 commits</title></rect><rect x="576" y="109" width="15" height="3" rx="2" fill="#2f7fb3"><title>Week starting 2026-09-18: 4 commits</title></rect><rect x="600" y="106.3529411764706" width="15" height="5.647058823529411" rx="2" fill="#2f7fb3"><title>Week starting 2026-09-25: 12 commits</title></rect><rect x="624" y="108.23529411764706" width="15" height="3.764705882352941" rx="2" fill="#58bde4"><title>Week starting 2026-10-02: 8 commits</title></rect><text x="360" y="130" class="muted small">2026-07-17</text><text x="639" y="130" text-anchor="end" class="muted small">now</text>
<text x="22" y="155" class="muted small">3 owned public repos · default branches · excludes private builds · refreshed daily</text>
</svg>
