<svg xmlns="http://www.w3.org/2000/svg" width="680" height="172" viewBox="0 0 680 172" role="img" aria-labelledby="title description">
<title id="title">Building in public</title>
<desc id="description">276 authored commits on 37 active days in the last 12 weeks across 3 owned public repositories. Updated 2026-09-12. Weekly counts: 13, 0, 37, 18, 5, 0, 4, 1, 29, 32, 65, 72.</desc>
<style>text{font-family:-apple-system,BlinkMacSystemFont,Segoe UI,Arial,sans-serif;fill:#26241f}.muted{fill:#6b655b}.number{font-size:36px;font-weight:650}.small{font-size:11px}@media(prefers-color-scheme:dark){text{fill:#eeeDE8}.muted{fill:#b9b7b0}}</style>
<rect x=".5" y=".5" width="679" height="171" rx="12" fill="none" stroke="#2f7fb3" stroke-opacity=".4"/>
<text x="22" y="28" font-size="15" font-weight="650">Building in public</text>
<text x="658" y="28" text-anchor="end" class="muted small">LAST 12 WEEKS · 2026-09-12</text>
<text x="22" y="85" class="number">276</text><text x="22" y="109" class="muted" font-size="13">authored commits</text>
<text x="200" y="85" class="number">37</text><text x="200" y="109" class="muted" font-size="13">active days</text>
<rect x="360" y="103.33333333333333" width="15" height="8.666666666666666" rx="2" fill="#2f7fb3"><title>Week starting 2026-06-21: 13 commits</title></rect><rect x="384" y="111" width="15" height="1" rx="2" fill="#2f7fb3"><title>Week starting 2026-06-28: 0 commits</title></rect><rect x="408" y="87.33333333333334" width="15" height="24.666666666666664" rx="2" fill="#2f7fb3"><title>Week starting 2026-07-05: 37 commits</title></rect><rect x="432" y="100" width="15" height="12" rx="2" fill="#2f7fb3"><title>Week starting 2026-07-12: 18 commits</title></rect><rect x="456" y="108.66666666666667" width="15" height="3.3333333333333335" rx="2" fill="#2f7fb3"><title>Week starting 2026-07-19: 5 commits</title></rect><rect x="480" y="111" width="15" height="1" rx="2" fill="#2f7fb3"><title>Week starting 2026-07-26: 0 commits</title></rect><rect x="504" y="109" width="15" height="3" rx="2" fill="#2f7fb3"><title>Week starting 2026-08-02: 4 commits</title></rect><rect x="528" y="109" width="15" height="3" rx="2" fill="#2f7fb3"><title>Week starting 2026-08-09: 1 commits</title></rect><rect x="552" y="92.66666666666666" width="15" height="19.333333333333336" rx="2" fill="#2f7fb3"><title>Week starting 2026-08-16: 29 commits</title></rect><rect x="576" y="90.66666666666667" width="15" height="21.333333333333332" rx="2" fill="#2f7fb3"><title>Week starting 2026-08-23: 32 commits</title></rect><rect x="600" y="68.66666666666666" width="15" height="43.333333333333336" rx="2" fill="#2f7fb3"><title>Week starting 2026-08-30: 65 commits</title></rect><rect x="624" y="64" width="15" height="48" rx="2" fill="#58bde4"><title>Week starting 2026-09-06: 72 commits</title></rect><text x="360" y="130" class="muted small">2026-06-21</text><text x="639" y="130" text-anchor="end" class="muted small">now</text>
<text x="22" y="155" class="muted small">3 owned public repos · default branches · excludes private builds · refreshed daily</text>
</svg>
