<svg xmlns="http://www.w3.org/2000/svg" width="680" height="172" viewBox="0 0 680 172" role="img" aria-labelledby="title description">
<title id="title">Building in public</title>
<desc id="description">281 authored commits on 39 active days in the last 12 weeks across 3 owned public repositories. Updated 2026-09-20. Weekly counts: 0, 43, 12, 5, 0, 4, 1, 41, 23, 79, 55, 18.</desc>
<style>text{font-family:-apple-system,BlinkMacSystemFont,Segoe UI,Arial,sans-serif;fill:#26241f}.muted{fill:#6b655b}.number{font-size:36px;font-weight:650}.small{font-size:11px}@media(prefers-color-scheme:dark){text{fill:#eeeDE8}.muted{fill:#b9b7b0}}</style>
<rect x=".5" y=".5" width="679" height="171" rx="12" fill="none" stroke="#2f7fb3" stroke-opacity=".4"/>
<text x="22" y="28" font-size="15" font-weight="650">Building in public</text>
<text x="658" y="28" text-anchor="end" class="muted small">LAST 12 WEEKS · 2026-09-20</text>
<text x="22" y="85" class="number">281</text><text x="22" y="109" class="muted" font-size="13">authored commits</text>
<text x="200" y="85" class="number">39</text><text x="200" y="109" class="muted" font-size="13">active days</text>
<rect x="360" y="111" width="15" height="1" rx="2" fill="#2f7fb3"><title>Week starting 2026-06-29: 0 commits</title></rect><rect x="384" y="85.87341772151899" width="15" height="26.126582278481013" rx="2" fill="#2f7fb3"><title>Week starting 2026-07-06: 43 commits</title></rect><rect x="408" y="104.70886075949367" width="15" height="7.291139240506329" rx="2" fill="#2f7fb3"><title>Week starting 2026-07-13: 12 commits</title></rect><rect x="432" y="108.9620253164557" width="15" height="3.037974683544304" rx="2" fill="#2f7fb3"><title>Week starting 2026-07-20: 5 commits</title></rect><rect x="456" y="111" width="15" height="1" rx="2" fill="#2f7fb3"><title>Week starting 2026-07-27: 0 commits</title></rect><rect x="480" y="109" width="15" height="3" rx="2" fill="#2f7fb3"><title>Week starting 2026-08-03: 4 commits</title></rect><rect x="504" y="109" width="15" height="3" rx="2" fill="#2f7fb3"><title>Week starting 2026-08-10: 1 commits</title></rect><rect x="528" y="87.08860759493672" width="15" height="24.91139240506329" rx="2" fill="#2f7fb3"><title>Week starting 2026-08-17: 41 commits</title></rect><rect x="552" y="98.0253164556962" width="15" height="13.974683544303797" rx="2" fill="#2f7fb3"><title>Week starting 2026-08-24: 23 commits</title></rect><rect x="576" y="64" width="15" height="48" rx="2" fill="#2f7fb3"><title>Week starting 2026-08-31: 79 commits</title></rect><rect x="600" y="78.58227848101265" width="15" height="33.41772151898734" rx="2" fill="#2f7fb3"><title>Week starting 2026-09-07: 55 commits</title></rect><rect x="624" y="101.0632911392405" width="15" height="10.936708860759493" rx="2" fill="#58bde4"><title>Week starting 2026-09-14: 18 commits</title></rect><text x="360" y="130" class="muted small">2026-06-29</text><text x="639" y="130" text-anchor="end" class="muted small">now</text>
<text x="22" y="155" class="muted small">3 owned public repos · default branches · excludes private builds · refreshed daily</text>
</svg>
